<svg width="128" height="128" viewBox="0 0 128 128" fill="none" xmlns="http://www.w3.org/2000/svg">
<g clip-path="url(#clip0_3088_2974)">
<path d="M115 0H13C5.8203 0 0 5.8203 0 13V115C0 122.18 5.8203 128 13 128H115C122.18 128 128 122.18 128 115V13C128 5.8203 122.18 0 115 0Z" fill="#F8FF2C"/>
<path d="M67.5173 28.1715L67.5288 54.3671C67.5304 58.5056 63.1274 61.1589 59.4691 59.2239L33.2075 45.3344C35.2104 42.038 37.729 39.0906 40.649 36.6L61.2458 55.6356C62.3372 56.644 64.0576 55.5506 63.608 54.1346L55.6205 28.9817C58.3091 28.341 61.1133 28 63.9974 28C65.1853 28 66.3589 28.059 67.5173 28.1715Z" fill="black"/>
<path d="M60.3909 99.8205L60.3794 73.7569C60.3778 69.6185 64.7808 66.9651 68.4391 68.9001L94.7103 82.7949C92.6938 86.0825 90.1636 89.0203 87.2321 91.4994L66.6624 72.4885C65.571 71.4801 63.8506 72.5734 64.3002 73.9895L72.2574 99.0475C69.6063 99.6697 66.8423 100 64.001 100C62.7827 100 61.5781 99.939 60.3909 99.8205Z" fill="black"/>
<path d="M72.3801 61.3554L91.4551 40.7179C88.9663 37.7865 86.0185 35.2576 82.72 33.2456L68.7912 59.5788C66.8561 63.237 69.51 67.6403 73.6486 67.6383L99.8188 67.6267C99.9381 66.434 99.9999 65.2242 99.9999 64.0001C99.9999 61.1532 99.668 58.3841 99.0433 55.728L73.8812 63.7176C72.4651 64.1672 71.3717 62.4468 72.3801 61.3554Z" fill="black"/>
<path d="M28.1699 60.4974L54.2608 60.4858C58.3997 60.4842 61.0532 64.8871 59.1182 68.5453L45.2612 94.7429C41.9754 92.7357 39.0376 90.2159 36.5564 87.2961L55.5297 66.7686C56.5381 65.6773 55.4443 63.9569 54.0282 64.4064L28.9781 72.3606C28.3399 69.6777 28 66.8787 28 64C28 62.8181 28.0586 61.6497 28.1699 60.4974Z" fill="black"/>
</g>
<defs>
<clipPath id="clip0_3088_2974">
<rect width="128" height="128" fill="white"/>
</clipPath>
</defs>
</svg>
